name C:\Users\u0101727\Documents\MyRepositories\predictcpgait/OpenSimModel/subject1/IK/Gait/KS_Gait_average_r.mot
datacolumns 22
datarows 12
range 0.00000000 0.11388889
endheader
time	lower_torso_RX	lower_torso_RY	lower_torso_RZ	lower_torso_TX	lower_torso_TY	lower_torso_TZ	hip_flex_l	hip_add_l	hip_rot_l	hip_flex_r	hip_add_r	hip_rot_r	knee_flex_l	knee_flex_r	ankle_flex_l	ankle_flex_r	subt_angle_l	subt_angle_r	lumbar_pitch	lumbar_roll	lumbar_yaw	
          0.00000000	         -8.90492099	          9.62128896	          7.50217883	          0.00000000	          0.81001477	         -0.02150329	          1.39166033	        -14.14079297	         10.27263316	         32.00799281	          3.61788067	          3.72753503	         51.70806597	         38.56482449	         34.13616383	        -10.11617878	         -2.94028704	        -23.90393349	        -41.13201682	          9.65876143	          0.93921307	
          0.01035354	         -8.98298814	          9.89798199	          7.89233593	          0.01179748	          0.80765360	         -0.02021331	          0.43795867	        -14.49122421	         10.53864722	         31.65963975	          3.93510716	          3.94914949	         52.28541277	         39.02571284	         33.61883089	         -9.97945852	         -2.58966891	        -25.06738768	        -41.20431939	          9.98210284	          1.05937375	
          0.02070707	         -9.09125961	         10.12179265	          8.23598658	          0.02370775	          0.80533224	         -0.01876574	         -0.40467664	        -14.87423041	         10.83294463	         31.34283132	          4.37958598	          4.16875453	         52.97577358	         39.76945968	         32.81585776	         -9.56237695	         -2.24389085	        -26.41796802	        -41.23274621	         10.28755294	          1.23796782	
          0.03106061	         -9.22765598	         10.29549496	          8.52928540	          0.03568782	          0.80309857	         -0.01718234	         -1.11303190	        -15.27769040	         11.16798964	         31.05757874	          4.94124782	          4.38975525	         53.79836867	         40.74875680	         31.70658069	         -8.89201806	         -1.89788859	        -27.88611023	        -41.22333084	         10.57682820	          1.46946672	
          0.04141414	         -9.38849437	         10.42328370	          8.77002323	          0.04769407	          0.80099967	         -0.01548934	         -1.66609062	        -15.68685903	         11.55701794	         30.79922165	          5.60444556	          4.61346517	         54.77030439	         41.90617739	         30.28770535	         -8.00391503	         -1.54491095	        -29.39860109	        -41.18268806	         10.85137893	          1.74669139	
          0.05176768	         -9.56888895	         10.51008682	          8.95736665	          0.05968440	          0.79908014	         -0.01371606	         -2.04641469	        -16.08561095	         12.01208530	         30.55944560	          6.34906322	          4.83871458	         55.90403734	         43.17813755	         28.57733027	         -6.93970873	         -1.17787458	        -30.88565770	        -41.11693863	         11.11224141	          2.06142608	
          0.06212121	         -9.76318344	         10.56092542	          9.09144897	          0.07161983	          0.79738070	         -0.01189316	         -2.24125928	        -16.45790249	         12.54181948	         30.32767179	          7.15191673	          5.06190880	         57.20486296	         44.49925347	         26.61722705	         -5.74423822	         -0.79138676	        -32.28591551	        -41.03128822	         11.35984629	          2.40507251	
          0.07247475	         -9.96536105	         10.58037161	          9.17294024	          0.08346528	          0.79593704	         -0.01005062	         -2.24331495	        -16.78924540	         13.14928074	         30.09253780	          7.98831962	          5.27756355	         58.66887338	         45.80660297	         24.47265964	         -4.46244270	         -0.38420861	        -33.54928542	        -40.93009611	         11.59384239	          2.76929814	
          0.08282828	        -10.16939771	         10.57210972	          9.20274818	          0.09519028	          0.79477890	         -0.00821595	         -2.05105886	        -17.06797910	         13.83035453	         29.84315752	          8.83369197	          5.47923892	         60.28180161	         47.04344982	         22.22929765	         -3.13647823	          0.03820302	        -34.63802450	        -40.81701561	         11.81299170	          3.14659706	
          0.09318182	        -10.36954518	         10.53861000	          9.18191980	          0.10676957	          0.79392936	         -0.00641263	         -1.66869164	        -17.28617141	         14.57302008	         29.56996781	          9.66509529	          5.66071054	         62.01901009	         48.16208312	         19.98720220	         -1.80340101	          0.46153420	        -35.52655588	        -40.69492501	         12.01515137	          3.53067621	
          0.10353535	        -10.56054485	         10.48094871	          9.11169422	          0.11818382	          0.79340428	         -0.00465910	         -1.10559819	        -17.44005052	         15.35768215	         29.26515454	         10.46257187	          5.81717920	         63.84665769	         49.12555955	         17.85236621	         -0.49365724	          0.86132364	        -36.20058286	        -40.56570241	         12.19732257	          3.91662001	
          0.11388889	        -10.73777939	         10.39881581	          8.99359439	          0.12941989	          0.79321204	         -0.00296816	         -0.37529577	        -17.52994716	         16.15855618	         28.92278438	         11.21016900	          5.94632612	         65.72386786	         49.90830767	         15.92677520	          0.76952723	          1.20297587	        -36.65592303	        -40.43011376	         12.35574489	          4.30084987	
